# xmcd
#
# Track frame offsets:
#	150
#	17692
#	38581
#	51792
#	64422
#	82121
#	99144
#	117676
#	136402
#	158405
#	174566
#
# Disc length: 2599 seconds
#
# Revision: 0
# Processed by: cddbd v1.4PL0 Copyright (c) Steve Scherf et al.
# Submitted via: dBpowerAMP V4.0
#
DISCID=8a0a250b
DTITLE=E. G. Kight - Come Into The Blues
DYEAR=1997
DGENRE=Blues
TTITLE0=Somewhere in Atlanta
TTITLE1=Unlove You
TTITLE2=I Broke a Heart
TTITLE3=Skin Deep
TTITLE4=Lovin' on The Weekend
TTITLE5=At Last
TTITLE6=Fuel to Burn
TTITLE7=Bits And Pieces
TTITLE8=Nobody Ever Touched me There
TTITLE9=I Don't Care no More
TTITLE10=I've Been Lovin' You Too Long (to Stop Now)
EXTD=
EXTT0=
EXTT1=
EXTT2=
EXTT3=
EXTT4=
EXTT5=
EXTT6=
EXTT7=
EXTT8=
EXTT9=
EXTT10=
PLAYORDER=
